<svg width="24" height="24" viewBox="0 0 24 24" fill="none" xmlns="http://www.w3.org/2000/svg">
<path d="M4.5 3.75012L19.5 20.2501" stroke="#C0C0C0" stroke-width="2" stroke-linecap="round" stroke-linejoin="round"/>
<path d="M14.5223 14.7749C13.7864 15.4438 12.8149 15.793 11.8215 15.7457C10.8281 15.6983 9.89422 15.2583 9.22524 14.5224C8.55626 13.7865 8.20698 12.8151 8.25424 11.8217C8.3015 10.8283 8.74142 9.89436 9.47724 9.22531" stroke="#C0C0C0" stroke-width="2" stroke-linecap="round" stroke-linejoin="round"/>
<path d="M6.93698 6.43076C3.11486 8.36628 1.5 12.0001 1.5 12.0001C1.5 12.0001 4.5 18.7494 12 18.7494C13.7572 18.7634 15.4926 18.3586 17.0623 17.5686" stroke="#C0C0C0" stroke-width="2" stroke-linecap="round" stroke-linejoin="round"/>
<path d="M19.5571 15.8532C21.6011 14.0225 22.5 12.0001 22.5 12.0001C22.5 12.0001 19.5 5.24937 12 5.24937C11.3504 5.24831 10.7019 5.30112 10.061 5.40726" stroke="#C0C0C0" stroke-width="2" stroke-linecap="round" stroke-linejoin="round"/>
<path d="M12.7056 8.31647C13.5026 8.46952 14.2285 8.87686 14.7745 9.47741C15.3204 10.0779 15.6569 10.8393 15.7335 11.6473" stroke="#C0C0C0" stroke-width="2" stroke-linecap="round" stroke-linejoin="round"/>
</svg>
